<?xml version="1.0" encoding="UTF-8" standalone="no"?>
<!-- Created with Inkscape (http://www.inkscape.org/) -->

<svg
   width="276.06635"
   height="276.56042"
   viewBox="0 0 73.042553 73.173278"
   version="1.1"
   id="svg1"
   xmlns="http://www.w3.org/2000/svg"
   xmlns:svg="http://www.w3.org/2000/svg">
  <defs
     id="defs1" />
  <g
     id="layer4"
     style="display:inline"
     transform="translate(-133.79382,-147.21083)">
    <ellipse
       style="display:inline;opacity:1;fill:#85b79d;fill-opacity:1;stroke:#000000;stroke-width:2.576;stroke-linecap:round;stroke-linejoin:round;stroke-dasharray:none;stroke-opacity:1"
       id="ellipse1"
       cx="170.31509"
       cy="183.79747"
       rx="35.233276"
       ry="35.298637" />
    <path
       id="path54"
       style="display:inline;opacity:1;fill:#694873;fill-opacity:1;stroke:#000000;stroke-width:2.306;stroke-dasharray:none;stroke-opacity:1"
       d="m 151.76128,161.41186 c -0.79881,0.59057 -2.32562,2.02718 -2.94452,2.7621 -0.46226,0.43769 -2.78541,3.16544 -3.85196,5.16403 -1.29075,2.22331 -2.2824,4.60677 -2.94918,7.08845 -2.71724,10.02537 0.0995,20.72668 7.3949,28.09441 0.0369,0.0347 0.074,0.0693 0.11111,0.10387 0.30467,-2.42162 0.91215,-4.79613 1.80815,-7.06778 -4.81079,-6.19198 -6.91576,-14.06875 -5.8384,-21.84725 0.3652,-2.70051 1.10709,-5.33738 2.204,-7.83363 1.06665,-2.32296 2.43367,-4.49617 4.0659,-6.4642 z" />
    <path
       id="path309"
       style="display:inline;opacity:1;fill:#ffffff;fill-opacity:1;stroke:#000000;stroke-width:2.306;stroke-dasharray:none;stroke-opacity:1"
       d="m 170.56013,154.8412 c -2.65547,-0.0316 -5.30528,0.29972 -7.876,0.9865 -3.99372,1.06714 -7.71699,2.9706 -10.92285,5.58416 -1.63222,1.96795 -2.99923,4.14132 -4.0659,6.4642 -1.09691,2.49625 -1.8388,5.13312 -2.204,7.83363 h -5.2e-4 c -1.07735,7.77849 1.02762,15.65527 5.83841,21.84725 1.46692,-3.5684 3.62648,-6.81204 6.35361,-9.54309 0.29747,-0.25444 0.60001,-0.50288 0.90744,-0.74517 -1.60979,-3.35702 -2.10388,-7.14307 -1.41025,-10.80606 h 5.2e-4 c 0.62327,-3.43939 2.26209,-6.61571 4.70514,-9.11934 0.0349,-0.027 0.0698,-0.0539 0.1049,-0.0806 l 2.02778,-1.55649 c 4.91222,0.7774 9.5407,2.7998 13.44466,5.87457 0.0648,-0.12985 0.13748,-0.25566 0.21756,-0.37672 1.39688,-1.39729 3.65941,-1.40038 5.05292,-0.006 1.39296,1.39373 1.38966,3.65546 -0.007,5.05189 -0.12088,0.0802 -0.24651,0.15307 -0.3762,0.21807 0.0654,0.0791 0.1303,0.15848 0.19482,0.23823 h 5.1e-4 c 0.8633,1.13049 1.64243,2.32295 2.33113,3.56774 1.67513,2.9893 2.80874,6.25209 3.34863,9.63818 l -1.62626,2.1177 -0.0109,0.0155 c -0.65028,0.64508 -1.35006,1.23825 -2.09289,1.77405 l -5.2e-4,-5.2e-4 c -1.36299,0.99157 -2.85928,1.77438 -4.43797,2.3363 -4.57297,0.50531 -11.03422,0.75813 -13.61261,-0.49041 -0.1976,0.29335 -0.42142,0.56819 -0.66869,0.82113 -0.95357,0.90712 -2.185,1.46601 -3.49436,1.58595 -0.63299,2.68326 -0.88248,5.44183 -0.74104,8.1933 5.14212,2.43553 14.9577,3.35658 20.59874,2.56109 0.0537,-0.37712 0.12359,-0.77272 0.19947,-1.17616 1.25238,-0.36561 2.48186,-0.81084 3.6773,-1.34204 2.17857,-0.96653 4.23114,-2.19611 6.11177,-3.66127 0.77769,-0.8497 1.5045,-1.74458 2.17661,-2.67994 1.70981,-2.64551 2.98063,-5.54941 3.76308,-8.59896 0.31208,-1.14928 0.55352,-2.31642 0.72295,-3.49488 0.53311,-3.81557 0.30496,-7.6972 -0.67127,-11.42049 -1.27016,-4.98219 -3.83723,-9.53633 -7.44038,-13.19971 -5.07819,-5.02984 -11.83385,-8.01128 -18.97972,-8.37623 v 5.1e-4 c -0.37936,-0.0194 -0.75908,-0.031 -1.13843,-0.0357 z" />
    <path
       style="display:inline;opacity:1;fill:#9c96b4;fill-opacity:1;stroke:#000000;stroke-width:2.306;stroke-dasharray:none;stroke-opacity:1"
       d="m 164.01841,165.70617 c -0.71283,0.46882 -1.39056,0.98903 -2.02778,1.55649 0.73582,5.17617 2.85134,10.05567 6.12469,14.12679 0.62051,0.84609 3.22743,1.44743 1.31652,1.77708 2.99153,3.94906 1.37604,-0.38055 1.3976,-0.36045 1.64909,-1.59708 2.32446,-2.07548 6.43821,-6.12748 -4.07525,3.94015 -5.53737,5.2087 -7.18656,6.80568 4.45028,4.41602 10.30426,7.67125 16.51786,8.5459 0.59504,-0.66367 1.13885,-1.3715 1.62626,-2.1177 -0.5399,-3.38602 -1.67353,-6.64893 -3.34863,-9.63817 -0.68868,-1.24498 -1.46781,-2.4376 -2.33113,-3.56826 -0.43044,0.12022 -0.85809,0.2503 -1.28261,0.39016 -0.0868,0.0301 -0.17471,0.0568 -0.26355,0.0801 -1.19391,0.2849 -2.44904,-0.0624 -3.32434,-0.91984 -1.22426,-1.28598 -1.31455,-3.27871 -0.21187,-4.67569 -3.90398,-3.07479 -8.53244,-5.09717 -13.44466,-5.87457 z"
       id="path4" />
    <path
       id="path6"
       style="display:inline;opacity:1;fill:#ff0000;fill-opacity:1;stroke:#000000;stroke-width:2.306;stroke-dasharray:none;stroke-opacity:1"
       d="m 182.35036,176.46793 a 3.56812,3.5766712 45 0 1 -1.08746,0.62849 29.111275,29.180607 45 0 1 1.28258,-0.39025 29.111275,29.180607 45 0 0 -0.19512,-0.23825 z" />
    <path
       id="path7"
       style="display:inline;opacity:1;fill:#119da4;fill-opacity:1;stroke:#000000;stroke-width:2.306;stroke-dasharray:none;stroke-opacity:1"
       d="m 180.20864,170.15447 a 3.56812,3.5766712 45 0 0 -2.5275,1.04955 3.56812,3.5766712 45 0 0 -0.21755,0.3762 l -5.2e-4,5.2e-4 a 3.56812,3.5766712 45 0 0 0.21187,4.67568 3.56812,3.5766712 45 0 0 3.32435,0.91985 29.111275,29.180607 45 0 1 0.26355,-0.0796 3.56812,3.5766712 45 0 0 1.08727,-0.6289 3.56812,3.5766712 45 0 0 0.37672,-0.21756 3.56812,3.5766712 45 0 0 0.007,-5.0524 3.56812,3.5766712 45 0 0 -2.52491,-1.04335 z" />
    <path
       style="display:inline;opacity:1;fill:#694873;fill-opacity:1;stroke:#000000;stroke-width:2.306;stroke-linecap:round;stroke-linejoin:round;stroke-dasharray:none;stroke-opacity:1"
       d="m 161.99063,167.26266 c -0.0351,0.0267 -0.07,0.0536 -0.1049,0.0806 -2.44306,2.50365 -4.15495,5.55279 -4.77822,8.99218 -0.69364,3.66301 0.21488,8.32943 1.54404,10.98487 2.48101,5.04534 3.36608,5.15509 7.93415,8.10648 3.38659,1.64015 7.21484,2.14184 10.91509,1.43041 v 5.1e-4 c 2.52484,-0.48698 4.91261,-1.52427 6.99338,-3.03805 h 5.1e-4 l 5.2e-4,5.1e-4 c 0.74283,-0.5358 1.44261,-1.12897 2.09289,-1.77405 l 0.0114,-0.0155 c -6.21356,-0.87458 -11.66315,-4.31461 -15.79245,-7.25742 -1.32197,-0.9639 -2.05957,-1.8531 -2.82394,-2.75559 -3.33142,-4.35977 -5.25658,-9.57901 -5.9924,-14.75518 z"
       id="path19" />
    <path
       id="path36"
       style="display:inline;opacity:1;fill:#ff0000;fill-opacity:1;stroke:#000000;stroke-width:2.306;stroke-dasharray:none;stroke-opacity:1"
       d="m 163.6963,193.65304 -1.83982,-1.57819 c 0.57589,0.56812 1.19064,1.09545 1.83982,1.57819 z" />
    <path
       id="path37"
       style="display:inline;opacity:1;fill:#ff0000;fill-opacity:1;stroke:#000000;stroke-width:2.306;stroke-dasharray:none;stroke-opacity:1"
       d="m 163.60678,193.94646 a 29.111275,29.180607 45 0 1 0.338,-0.10268 17.466751,17.508339 45 0 1 -0.24846,-0.19076 29.111275,29.180607 45 0 0 -0.0895,0.29342 z" />
    <path
       style="display:inline;opacity:1;fill:#85b79d;fill-opacity:1;stroke:#000000;stroke-width:2.306;stroke-dasharray:none;stroke-opacity:1"
       d="m 158.63528,187.3772 c -0.3375,0.18052 -0.65651,0.39376 -0.9524,0.63665 -2.27929,2.27916 -2.28368,5.97017 -0.01,8.24394 0.19638,0.14989 0.40212,0.28711 0.61599,0.41083 h 5.1e-4 c 1.17772,0.9011 2.65595,1.31806 4.13309,1.16582 1.30942,-0.12008 2.54085,-0.67916 3.49436,-1.58647 0.24724,-0.25278 0.47106,-0.52745 0.66869,-0.82062 -1.17957,-0.57229 -2.34577,-1.43536 -2.88974,-1.77457 -2.18183,-1.62208 -3.86328,-3.71159 -5.06068,-6.27558 z"
       id="path38" />
    <path
       id="path47"
       style="display:inline;opacity:1;fill:#16302b;fill-opacity:1;stroke:#000000;stroke-width:2.306;stroke-dasharray:none;stroke-opacity:1"
       d="m 157.68342,188.01386 c -2.72695,2.7311 -4.88632,5.97472 -6.3531,9.54308 0.69999,0.96976 1.45918,1.89531 2.27324,2.77141 0.0212,0.0198 0.0424,0.0396 0.0636,0.0594 h 5.1e-4 c 2.33238,2.32006 5.04209,4.22706 8.01398,5.63997 -0.14144,-2.75148 0.10805,-5.51004 0.74104,-8.1933 -1.47713,0.15224 -2.95536,-0.26472 -4.13308,-1.16582 -0.21387,-0.12372 -0.41961,-0.26094 -0.61598,-0.41083 -2.27383,-2.27382 -2.83159,-5.43567 -0.55224,-7.71477 z" />
    <path
       style="display:inline;opacity:1;fill:#16302b;fill-opacity:1;stroke:#000000;stroke-width:2.306;stroke-dasharray:none;stroke-opacity:1"
       d="m 151.32978,197.55642 c -0.89492,2.26891 -1.50208,4.64042 -1.80712,7.059 0.18806,0.18054 0.12992,0.12425 0.38447,0.36897 h 5.2e-4 c 5.25861,4.67456 9.48642,6.17759 14.40494,7.07555 4.63912,0.60382 6.03126,0.82431 12.16243,0.079 2.85028,-0.68574 4.06011,-0.71804 8.01501,-2.97966 0.56074,-0.92152 1.07002,-1.87332 1.52549,-2.85099 -2.48542,1.1044 -5.11225,1.85617 -7.80417,2.23346 v 0 c -5.64088,0.79538 -11.38726,-0.0786 -16.52923,-2.51406 h -5.1e-4 c -2.97208,-1.41286 -5.68197,-3.31986 -8.0145,-5.63997 h -5.2e-4 l -0.0636,-0.0594 c -0.81409,-0.87626 -1.57327,-1.80199 -2.27324,-2.77192 z"
       id="path48" />
    <path
       id="path53"
       style="display:inline;opacity:1;fill:#16302b;fill-opacity:1;stroke:#000000;stroke-width:2.306;stroke-dasharray:none;stroke-opacity:1"
       d="m 192.1272,202.64718 a 29.111275,29.180607 45 0 1 -6.11144,3.66102 29.111275,29.180607 45 0 1 -1.52594,2.85091 29.111275,29.180607 45 0 0 6.13958,-4.68744 29.111275,29.180607 45 0 0 1.4978,-1.82449 z" />
    <path
       id="path64"
       style="display:inline;opacity:1;fill:#ff0000;fill-opacity:1;stroke:#000000;stroke-width:2.306;stroke-dasharray:none;stroke-opacity:1"
       d="m 170.10994,183.82138 a 29.111275,29.180607 45 0 1 0.0554,0.0681 29.111275,29.180607 45 0 1 0.002,-0.002 5.8222618,5.8360977 45 0 0 -0.0575,-0.066 z" />
    <path
       id="path66"
       style="display:inline;opacity:1;fill:#ff0000;fill-opacity:1;stroke:#000000;stroke-width:2.306;stroke-dasharray:none;stroke-opacity:1"
       d="m 170.17461,183.88167 a 29.111275,29.180607 45 0 1 -0.0646,-0.0604 5.8222618,5.8360977 45 0 1 0.0575,0.066 29.111275,29.180607 45 0 1 0.007,-0.006 z" />
    <path
       style="display:inline;fill:#000000;fill-opacity:0;stroke:#000000;stroke-width:2.306;stroke-linecap:round;stroke-linejoin:round;stroke-dasharray:none;stroke-opacity:1"
       d="m 164.67005,176.44401 c -4.79058,2.92106 -4.78916,4.19296 -5.9823,5.72574 -1.19314,1.53278 -0.83072,3.5016 -0.83072,3.5016 0,0 0.5186,-5.83415 6.81302,-9.22734 z"
       id="path310" />
    <path
       style="display:inline;fill:#000000;fill-opacity:0;stroke:#000000;stroke-width:1.9748;stroke-linecap:round;stroke-linejoin:round;stroke-dasharray:none;stroke-opacity:1"
       d="m 167.0459,195.799 c 0,0 3.81573,-1.6415 4.79072,-2.72027 0.975,-1.07877 1.90763,-2.51245 2.21308,-5.22854 -1.09771,5.88998 -7.0038,7.94881 -7.0038,7.94881 z"
       id="path311" />
  </g>
</svg>
